<svg width="93" height="73" viewBox="0 0 93 73" fill="none" xmlns="http://www.w3.org/2000/svg">
<g id="Group">
<path id="Vector" fill-rule="evenodd" clip-rule="evenodd" d="M44.3203 12.5862L56.6719 54.1207H31.9688L44.3203 12.5862Z" fill="#22BA8E"/>
<path id="Vector_2" fill-rule="evenodd" clip-rule="evenodd" d="M18.1641 8.8103L30.5156 65.4482H5.8125L18.1641 8.8103Z" fill="#22BA8E"/>
<path id="Vector_3" fill-rule="evenodd" clip-rule="evenodd" d="M29.7891 0L42.1406 56.6379H17.4375L29.7891 0Z" fill="#80D25B"/>
<path id="Vector_4" fill-rule="evenodd" clip-rule="evenodd" d="M42.1406 47.8276C71.6922 47.8276 84.2812 73.0001 84.2812 73.0001H0C0 73.0001 12.5891 47.8276 42.1406 47.8276Z" fill="#80D25B"/>
<path id="Vector_5" fill-rule="evenodd" clip-rule="evenodd" d="M46.5 42.7932H72.6562V57.8967H46.5V42.7932Z" fill="#BD7575"/>
<path id="Vector_6" fill-rule="evenodd" clip-rule="evenodd" d="M59.5781 32.7241L77.0156 44.0517H42.1406L59.5781 32.7241Z" fill="#E43535"/>
<path id="Vector_7" fill-rule="evenodd" clip-rule="evenodd" d="M55.2188 46.5688H63.9375V57.8964H55.2188V46.5688Z" fill="#595959"/>
<path id="Vector_8" fill-rule="evenodd" clip-rule="evenodd" d="M61.0312 54.1206C83.4497 54.1206 93 72.9999 93 72.9999H29.0625C29.0625 72.9999 38.6128 54.1206 61.0312 54.1206Z" fill="#22BA8E"/>
</g>
</svg>
