<svg width="90" height="91" viewBox="0 0 90 91" fill="none" xmlns="http://www.w3.org/2000/svg">
<g id="&#240;&#159;&#166;&#134; emoji &#34;man farmer: dark skin tone&#34;">
<path id="Vector" d="M35.9227 24.5564C16.5893 24.0237 -6.1564 2.03799 1.53405 25.5368C5.96032 39.0463 20.9267 45.6312 35.9227 45.4305C50.9188 45.6312 65.8852 39.054 70.3114 25.5368C78.0019 2.03799 55.2562 24.0237 35.9227 24.5564Z" fill="#E59600"/>
<path id="Vector_2" d="M36.1073 65.2778H29.5049V73.5225C29.5049 77.2511 32.1917 80.2695 35.5077 80.2695H36.7068C40.0228 80.2695 42.7097 77.2434 42.7097 73.5225V65.2778H36.1073Z" fill="#3C2B24"/>
<path id="Vector_3" d="M55.789 35.2483H50.4301H21.4151H16.0562C11.7706 35.2483 8.26953 39.139 8.26953 43.9021C8.26953 48.6652 11.7706 52.5559 16.0562 52.5559H21.4151H50.4375H55.7964C60.082 52.5559 63.5831 48.6652 63.5831 43.9021C63.5831 39.139 60.0746 35.2483 55.789 35.2483Z" fill="#3C2B24"/>
<path id="Vector_4" d="M35.9224 5.396C23.2654 5.396 11.5483 19.5076 11.5483 39.8182C11.5483 60.0207 23.6206 70.0023 35.9224 70.0023C48.2242 70.0023 60.2965 60.0207 60.2965 39.8182C60.2965 19.5076 48.5795 5.396 35.9224 5.396Z" fill="#70534A"/>
<g id="Group">
<path id="Vector_5" d="M19.0467 35.2946C21.2302 32.0601 26.2116 31.759 29.0613 34.1598C29.5128 34.5381 30.1123 35.0785 30.2974 35.6729C30.586 36.6456 29.6978 37.4021 28.8244 37.1705C28.2693 37.0238 27.7512 36.715 27.196 36.5375C26.1968 36.2055 25.4714 36.1206 24.5684 36.1129C23.2361 36.1052 22.3775 36.2827 21.1117 36.8154C20.5936 37.0393 20.1643 37.3867 19.5722 37.1319C18.8912 36.8386 18.6396 35.9354 19.0467 35.2946Z" fill="#1A1717"/>
<path id="Vector_6" d="M51.3551 37.1321C51.1404 37.0395 50.9406 36.9082 50.726 36.8156C49.4232 36.2443 48.6831 36.1054 47.2693 36.1131C46.0258 36.1208 45.2782 36.2984 44.316 36.6457C43.7165 36.8619 42.9689 37.3946 42.3101 37.1861C41.3479 36.8773 41.3775 35.7811 41.903 35.0786C42.5322 34.2526 43.3908 33.6273 44.316 33.2105C46.4403 32.2532 49.0383 32.3845 51.0368 33.6273C51.6956 34.0365 52.4062 34.5923 52.7984 35.2948C53.3462 36.2906 52.4802 37.6107 51.3551 37.1321Z" fill="#1A1717"/>
<path id="Vector_7" d="M24.5976 45.4693C26.5761 45.4693 28.1801 43.7377 28.1801 41.6017C28.1801 39.4657 26.5761 37.7341 24.5976 37.7341C22.6191 37.7341 21.0151 39.4657 21.0151 41.6017C21.0151 43.7377 22.6191 45.4693 24.5976 45.4693Z" fill="#1A1717"/>
<path id="Vector_8" d="M47.248 45.4693C49.2265 45.4693 50.8305 43.7377 50.8305 41.6017C50.8305 39.4657 49.2265 37.7341 47.248 37.7341C45.2694 37.7341 43.6655 39.4657 43.6655 41.6017C43.6655 43.7377 45.2694 45.4693 47.248 45.4693Z" fill="#1A1717"/>
<path id="Vector_9" d="M42.1254 54.7483C39.8087 56.1842 32.2144 56.1842 29.8977 54.7483C28.5654 53.9223 27.2108 55.1883 27.7586 56.4467C28.2989 57.6895 32.4439 60.5613 36.0263 60.5613C39.6088 60.5613 43.6946 57.6895 44.2423 56.4467C44.7975 55.1806 43.4577 53.9223 42.1254 54.7483Z" fill="#1A1717"/>
</g>
<path id="Vector_10" d="M38.7282 48.6111C38.6542 48.5802 38.5727 48.557 38.4913 48.5493H33.3545C33.2731 48.557 33.199 48.5802 33.1176 48.6111C32.6513 48.8118 32.3923 49.3136 32.6143 49.8462C32.8364 50.3789 33.8578 51.8842 35.9229 51.8842C37.988 51.8842 39.0094 50.3789 39.2315 49.8462C39.4536 49.3136 39.1945 48.8118 38.7282 48.6111Z" fill="#33251F"/>
<path id="Vector_11" d="M62.4954 39.741C62.4954 39.741 62.4584 39.8413 62.3918 40.0189L62.3029 40.2659L62.0513 40.9375C62.0291 41.007 62.0069 41.0688 61.9773 41.1382L60.2971 45.6157C60.2008 45.8782 59.8382 45.855 59.7789 45.5771C59.6827 45.1448 59.5569 44.5735 59.4088 43.8942C59.246 43.1145 59.0388 42.1881 58.8167 41.1846C58.3874 39.2624 57.8841 37.0391 57.3734 34.893C57.0921 33.735 56.8182 32.5925 56.5518 31.5349C56.3223 30.6549 56.1077 29.8366 55.9004 29.1109C55.7154 28.447 55.5377 27.8526 55.3749 27.3663C55.3231 27.1964 55.2713 27.0421 55.2194 26.9031C54.4571 24.7879 52.3549 23.5605 50.2232 23.9619C46.9516 24.5795 41.7408 25.3514 35.9822 25.3514C35.9674 25.3514 35.9452 25.3437 35.923 25.3437C35.9008 25.3437 35.886 25.3514 35.8638 25.3514C30.1126 25.3514 24.8943 24.5795 21.6227 23.9619C19.491 23.5605 17.3889 24.7879 16.6265 26.9031C16.101 28.3544 15.3682 31.1644 14.6355 34.2137C14.5466 34.5842 14.4578 34.9548 14.369 35.333C14.2284 35.9043 14.0951 36.491 13.9619 37.07C13.8509 37.5331 13.7472 37.9963 13.6436 38.4518C13.6362 38.4595 13.6362 38.4672 13.6362 38.4827C13.5326 38.9304 13.429 39.3782 13.3327 39.8182C13.3253 39.8336 13.3253 39.8413 13.3253 39.8491C13.2217 40.2891 13.1255 40.7214 13.0367 41.1305C12.8442 41.9874 12.6666 42.7903 12.5111 43.4928C12.4001 44.0023 12.2965 44.4577 12.2151 44.8592C12.1559 45.1293 12.104 45.3764 12.0596 45.5848C12.0522 45.6234 12.0374 45.6543 12.0226 45.6774C11.9264 45.8859 11.6303 45.8936 11.5341 45.6543C11.0234 44.2956 10.0537 41.6478 9.60224 40.4126L9.55043 40.2659C9.49861 40.127 9.4542 40.0112 9.4246 39.9263L9.35798 39.741C9.35798 39.741 8.58819 35.2713 8.82505 29.3194C8.83245 29.1264 8.83985 28.9257 8.85466 28.7249C8.86946 28.3312 8.89907 27.9221 8.92868 27.513C8.93608 27.3431 8.95088 27.1733 8.96569 27.0035C9.13593 24.9346 9.4394 22.7344 9.94272 20.5266H61.9032C64.1238 30.2535 62.4954 39.741 62.4954 39.741Z" fill="#232020"/>
<path id="Vector_12" d="M62.4954 39.741C62.4954 39.741 62.4584 39.8413 62.3918 40.0189L62.3029 40.2659C62.2363 40.4512 62.1475 40.6828 62.0513 40.9375C62.0291 41.007 62.0069 41.0688 61.9773 41.1382C61.4813 42.5046 60.7264 44.5349 60.2971 45.662C60.2008 45.9245 59.8456 45.8936 59.7863 45.6234C59.7863 45.608 59.7789 45.5925 59.7789 45.5771C59.6827 45.1448 59.5569 44.5735 59.4088 43.8942C59.2386 43.1145 59.0388 42.1881 58.8167 41.1846C58.3874 39.2624 57.8841 37.0391 57.3734 34.893C57.0995 33.7273 56.8182 32.5925 56.5518 31.5349C56.3223 30.6549 56.1077 29.8366 55.9004 29.1109C55.7154 28.447 55.5377 27.8526 55.3749 27.3663C55.3231 27.1964 55.2713 27.0421 55.2194 26.9031C54.4571 24.7879 52.3549 23.5605 50.2232 23.9619C46.9516 24.5795 41.7408 25.3514 35.9822 25.3514C35.9674 25.3514 35.9452 25.3437 35.923 25.3437C35.9008 25.3437 35.886 25.3514 35.8638 25.3514C30.1126 25.3514 24.8943 24.5795 21.6227 23.9619C19.491 23.5605 17.3889 24.7879 16.6265 26.9031C16.101 28.3544 15.3682 31.1644 14.6355 34.2137C14.5466 34.5842 14.4578 34.9548 14.369 35.333C14.2284 35.9043 14.0951 36.491 13.9619 37.07C13.8509 37.5331 13.7472 37.9963 13.6436 38.4518C13.6362 38.4595 13.6362 38.4672 13.6362 38.4827C13.5326 38.9381 13.429 39.3859 13.3327 39.8182C13.3253 39.8336 13.3253 39.8413 13.3253 39.8491C13.2217 40.2891 13.1329 40.7137 13.0367 41.1305C12.8442 41.9874 12.6666 42.7903 12.5111 43.4928C12.4001 44.0023 12.3039 44.4654 12.2151 44.8592C12.1559 45.1293 12.104 45.3764 12.0596 45.5848C12.0522 45.6234 12.0374 45.6543 12.0226 45.6774C11.9116 45.855 11.6303 45.8473 11.5415 45.6234L9.60224 40.4126L9.55043 40.2659L9.4246 39.9263L9.35798 39.741C9.35798 39.741 8.58819 35.2713 8.82505 29.3194C8.83245 29.1264 8.83985 28.9257 8.85466 28.7249C8.86946 28.3312 8.89907 27.9221 8.92868 27.513C8.93608 27.3431 8.95088 27.1733 8.96569 27.0035C9.13593 24.9346 9.4394 22.7344 9.94272 20.5266H61.9032C64.1238 30.2535 62.4954 39.741 62.4954 39.741Z" fill="url(#paint0_radial_336_83)"/>
<path id="Vector_13" d="M55.1816 17.6936C51.6139 8.43765 48.1055 1.1348 43.6126 0.571259C42.4135 0.424585 39.2752 0.00771971 36.0998 0C32.806 0 29.4752 0.416865 28.2391 0.571259C23.7462 1.1348 20.2378 8.43765 16.6627 17.6859C14.7235 22.7037 57.1209 22.7037 55.1816 17.6936Z" fill="url(#paint1_linear_336_83)"/>
<path id="Vector_14" d="M65.6035 14.3587C58.6236 15.6788 46.9658 17.215 36.3442 17.2613C36.2036 17.2613 36.063 17.2613 35.9223 17.2613C35.7817 17.2613 35.6411 17.2613 35.5004 17.2613C24.8789 17.215 13.2211 15.6788 6.24117 14.3587C0.216117 13.2162 0.00146484 17.3231 0.00146484 17.3231C0.00146484 17.3231 1.91113 14.8605 5.26413 18.2726C10.4676 23.5683 18.9426 31.9751 35.4412 32.0446C35.604 32.0446 35.7595 32.0369 35.9223 32.0369C36.0852 32.0369 36.2406 32.0446 36.4034 32.0446C52.9094 31.9674 61.3771 23.5683 66.5805 18.2726C69.9335 14.8605 71.8432 17.3231 71.8432 17.3231C71.8432 17.3231 71.6285 13.2162 65.6035 14.3587Z" fill="url(#paint2_linear_336_83)"/>
<path id="Vector_15" d="M35.9219 16.4508C30.3409 16.4508 23.324 15.8718 19.7563 15.5476C22.6134 14.0886 28.3868 11.7495 35.9219 11.7495C43.4569 11.7495 49.2229 14.0963 52.0873 15.5476C48.5197 15.8718 41.5028 16.4508 35.9219 16.4508Z" fill="#78909C"/>
<path id="Vector_16" d="M35.9228 12.4827C41.5038 12.4827 46.1003 13.795 49.2164 15.0456C45.4489 15.3544 40.2529 15.7018 35.9228 15.7018C31.5928 15.7018 26.3967 15.3544 22.6292 15.0456C25.7528 13.795 30.3493 12.4827 35.9228 12.4827ZM35.9228 11.0005C24.6869 11.0005 17.3813 16.0569 17.3813 16.0569C17.3813 16.0569 28.0177 17.1917 35.9228 17.1917C43.8279 17.1917 54.4643 16.0569 54.4643 16.0569C54.4643 16.0569 47.1587 11.0005 35.9228 11.0005Z" fill="#90A4AE"/>
<path id="Vector_17" d="M78.2386 85.4109H76.5214C75.4926 85.4109 74.6636 85.4109 74.6636 83.4733V74.2019H80.0891V83.4733C80.0965 85.1176 79.2601 85.4109 78.2386 85.4109Z" fill="#636363"/>
<path id="Vector_18" d="M84.2276 72.0866C82.8657 72.0866 78.4987 72.1329 77.5142 72.1329C75.945 72.1329 71.7852 71.9862 70.0902 71.9862C64.5537 71.9862 64.5093 51.3823 64.5093 51.3823V70.4577C64.5093 75.6222 67.0407 77.2742 71.4818 77.4441H82.8657C86.8775 77.4441 88.306 74.5801 88.306 71.1525L88.0247 67.4007C88.0099 67.4084 86.9367 72.0866 84.2276 72.0866Z" fill="#616161"/>
<path id="Vector_19" d="M89.1415 24.9193C89.0601 24.5951 88.6012 24.6028 88.5272 24.927L87.676 28.5398L86.1956 68.8213C86.1956 68.8213 86.1882 69.0297 86.1882 69.1378C86.1882 70.3267 85.3074 71.1758 84.1675 71.1758C83.0276 71.1758 82.0876 70.3112 82.0876 69.1224C82.0876 68.9525 82.5317 28.6865 82.5317 28.6865L81.6509 24.7263C81.5695 24.4021 81.118 24.4021 81.0366 24.7186L80.0373 28.617L79.5784 68.8753C79.5784 70.1877 78.816 71.1835 77.5577 71.1835C76.2994 71.1835 75.278 70.1182 75.278 68.8059L75.0559 28.5321L74.1825 24.7186C74.1011 24.4021 73.657 24.4021 73.5682 24.7186L72.4579 28.6942L72.4801 68.7287C72.4801 70.0873 71.5771 71.1913 70.2744 71.1913C68.8236 71.1913 67.7578 70.0873 67.7578 68.7287L66.2478 28.5398L65.256 24.7031C65.1745 24.3789 64.8118 24.4407 64.723 24.7572L63.709 28.617L64.8933 70.0179C64.8933 73.5072 67.025 76.1473 71.4661 76.3249H82.85C86.8618 76.3249 88.4013 73.4454 88.4013 70.0179L90.0001 28.7946L89.1415 24.9193Z" fill="url(#paint3_linear_336_83)"/>
<path id="Vector_20" d="M68.6826 88.5375C68.6826 74.8041 49.7636 71.639 43.028 70.952L37.3508 79.0885H34.886L29.2977 70.9365C22.0069 71.6545 15.8042 73.4609 11.3262 76.1705C6.15971 79.297 3.54688 83.4579 3.54688 88.5298V91.0001H68.6974V88.5375H68.6826Z" fill="url(#paint4_linear_336_83)"/>
<path id="Vector_21" d="M59.7342 87.974L54.4271 83.7127L54.6122 83.4116L35.3749 83.7899L17.7069 83.4116L17.8919 83.7127L12.5848 87.974L12.459 91.0001H59.86L59.7342 87.974Z" fill="url(#paint5_linear_336_83)"/>
<path id="Vector_22" d="M22.8292 77.9768L22.7478 71.9399C22.7478 71.9399 18.4621 72.8663 16.9226 73.5611L14.7612 78.6561L17.5591 83.1798L22.8292 77.9768Z" fill="url(#paint6_linear_336_83)"/>
<path id="Vector_23" d="M49.4893 77.9768L49.5707 71.9399C49.5707 71.9399 53.8563 72.8663 55.3959 73.5611L57.5572 78.6561L54.7519 83.1798L49.4893 77.9768Z" fill="url(#paint7_linear_336_83)"/>
<path id="Vector_24" d="M51.8369 84.5231L55.6636 85.2797C56.6851 85.4804 57.6695 84.7779 57.8694 83.7126C58.0618 82.6473 57.3883 81.6205 56.3668 81.4121L52.5401 80.6556C51.5186 80.4549 50.5342 81.1574 50.3344 82.2227C50.1419 83.2957 50.8081 84.3224 51.8369 84.5231Z" fill="#BDBDBD"/>
<path id="Vector_25" d="M20.4828 84.5231L16.656 85.2797C15.6346 85.4804 14.6427 84.7779 14.4503 83.7126C14.2579 82.6473 14.9314 81.6205 15.9529 81.4121L19.7796 80.6556C20.801 80.4549 21.7855 81.1574 21.9853 82.2227C22.1778 83.2957 21.5116 84.3224 20.4828 84.5231Z" fill="#BDBDBD"/>
<path id="Vector_26" d="M29.1944 70.9519C27.2625 71.1449 25.4121 71.4228 23.6431 71.7625L23.458 87.9353L36.1077 79.0344L29.1944 70.9519Z" fill="url(#paint8_linear_336_83)"/>
<path id="Vector_27" d="M48.5724 71.7856C46.3815 71.3533 44.4348 71.0986 43.0285 70.9519L36.1152 79.0422L48.7649 87.943L48.5724 71.7856Z" fill="url(#paint9_linear_336_83)"/>
</g>
<defs>
<radialGradient id="paint0_radial_336_83" cx="0" cy="0" r="1" gradientUnits="userSpaceOnUse" gradientTransform="translate(35.9254 38.668) scale(26.2284 30.8619)">
<stop offset="0.7945" stop-color="#444140" stop-opacity="0"/>
<stop offset="1" stop-color="#444140"/>
</radialGradient>
<linearGradient id="paint1_linear_336_83" x1="35.9233" y1="1.12245" x2="35.9233" y2="19.4836" gradientUnits="userSpaceOnUse">
<stop offset="0.0028" stop-color="#FFF59D"/>
<stop offset="0.5532" stop-color="#FEE565"/>
<stop offset="0.9964" stop-color="#FDD835"/>
</linearGradient>
<linearGradient id="paint2_linear_336_83" x1="35.9223" y1="15.7695" x2="35.9223" y2="38.178" gradientUnits="userSpaceOnUse">
<stop offset="0.0028" stop-color="#FFF59D"/>
<stop offset="0.5532" stop-color="#FEE565"/>
<stop offset="0.9964" stop-color="#FDD835"/>
</linearGradient>
<linearGradient id="paint3_linear_336_83" x1="76.8601" y1="79.0098" x2="76.8601" y2="33.7179" gradientUnits="userSpaceOnUse">
<stop stop-color="#757575"/>
<stop offset="0.4818" stop-color="#9E9E9E"/>
</linearGradient>
<linearGradient id="paint4_linear_336_83" x1="36.1073" y1="91.0001" x2="36.1073" y2="70.9427" gradientUnits="userSpaceOnUse">
<stop stop-color="#709E3B"/>
<stop offset="0.3283" stop-color="#73A13E"/>
<stop offset="0.5949" stop-color="#7DAB47"/>
<stop offset="0.8391" stop-color="#8DBC57"/>
<stop offset="1" stop-color="#9CCC65"/>
</linearGradient>
<linearGradient id="paint5_linear_336_83" x1="36.1599" y1="91.4002" x2="36.1599" y2="72.4154" gradientUnits="userSpaceOnUse">
<stop stop-color="#1E88E5"/>
<stop offset="1" stop-color="#1565C0"/>
</linearGradient>
<linearGradient id="paint6_linear_336_83" x1="18.7978" y1="90.9941" x2="18.7978" y2="72.9473" gradientUnits="userSpaceOnUse">
<stop stop-color="#1E88E5"/>
<stop offset="1" stop-color="#1565C0"/>
</linearGradient>
<linearGradient id="paint7_linear_336_83" x1="53.5214" y1="90.9941" x2="53.5214" y2="72.9473" gradientUnits="userSpaceOnUse">
<stop stop-color="#1E88E5"/>
<stop offset="1" stop-color="#1565C0"/>
</linearGradient>
<linearGradient id="paint8_linear_336_83" x1="29.7828" y1="72.6801" x2="29.7828" y2="84.0875" gradientUnits="userSpaceOnUse">
<stop stop-color="#AED581"/>
<stop offset="1" stop-color="#8BC34A"/>
</linearGradient>
<linearGradient id="paint9_linear_336_83" x1="42.4327" y1="70.9968" x2="42.4327" y2="84.4549" gradientUnits="userSpaceOnUse">
<stop stop-color="#AED581"/>
<stop offset="1" stop-color="#8BC34A"/>
</linearGradient>
</defs>
</svg>
