<svg width="87" height="81" viewBox="0 0 87 81" fill="none" xmlns="http://www.w3.org/2000/svg">
<g id="&#240;&#159;&#166;&#134; icon &#34;vegetables&#34;">
<path id="Vector" d="M86.3702 40.1216C86.3702 51.1672 81.5365 61.1672 73.7215 68.4058C65.9065 75.6444 55.1102 80.1216 43.1851 80.1216C31.2599 80.1216 20.4637 75.6444 12.6487 68.406C4.83369 61.1675 0 51.1674 0 40.1216C0 29.0758 4.83369 19.076 12.6487 11.8374C20.4637 4.59877 31.2599 0.121582 43.1851 0.121582C55.1102 0.121582 65.9065 4.59877 73.7215 11.8374C81.5365 19.076 86.3702 29.076 86.3702 40.1216Z" fill="#FCDB59"/>
<path id="Vector_2" d="M83.9444 53.3669C80.9939 61.1576 75.5135 67.8462 68.4161 72.5873C61.3188 77.3283 52.604 80.1216 43.1851 80.1216C33.7662 80.1216 25.0516 77.3282 17.954 72.5873C10.8565 67.8463 5.3762 61.1576 2.42578 53.3669H43.1851H83.9444Z" fill="#2C7294"/>
<path id="Vector_3" d="M54.9766 40.3486C54.9766 41.4986 55.4798 42.5399 56.2935 43.2935C57.1073 44.0471 58.2313 44.5133 59.4729 44.5133C60.7144 44.5133 61.8386 44.0472 62.6522 43.2935C63.4658 42.5397 63.9692 41.4986 63.9692 40.3486C63.9692 39.1986 63.466 38.1574 62.6522 37.4038C61.8384 36.6502 60.7144 36.184 59.4729 36.184C58.2313 36.184 57.1071 36.6501 56.2935 37.4038C55.4799 38.1576 54.9766 39.1986 54.9766 40.3486Z" fill="#0FA46E"/>
<path id="Vector_4" d="M61.0553 18.921C60.391 18.921 59.7611 19.0552 59.1944 19.2957C58.6278 19.536 58.1244 19.8826 57.7128 20.3069C57.3353 19.6482 56.7729 19.0943 56.0895 18.7051C55.4061 18.3158 54.6018 18.0913 53.7404 18.0913C52.4989 18.0913 51.3747 18.5574 50.5611 19.3112C49.7475 20.0647 49.2441 21.106 49.2441 22.256C49.2441 23.406 49.7473 24.4472 50.5611 25.2008C51.3747 25.9544 52.4989 26.4207 53.7404 26.4207C54.4048 26.4207 55.0347 26.2865 55.6013 26.046C56.1679 25.8057 56.6713 25.4591 57.0829 25.0347C57.4604 25.6935 58.0229 26.2474 58.7062 26.6366C59.3896 27.0258 60.1939 27.2504 61.0553 27.2504C62.2968 27.2504 63.421 26.7843 64.2346 26.0305C65.0482 25.2768 65.5516 24.2357 65.5516 23.0857C65.5516 21.9357 65.0484 20.8944 64.2346 20.1408C63.421 19.3871 62.2968 18.921 61.0553 18.921Z" fill="#0FA46E"/>
<path id="Vector_5" d="M65.2056 30.0562C65.2056 31.2062 65.7088 32.2474 66.5225 33.001C67.3363 33.7546 68.4603 34.2209 69.7019 34.2209C70.9434 34.2209 72.0676 33.7548 72.8812 33.001C73.6948 32.2473 74.1982 31.2062 74.1982 30.0562C74.1982 28.9062 73.695 27.8649 72.8812 27.1113C72.0674 26.3577 70.9434 25.8915 69.7019 25.8915C68.4603 25.8915 67.3361 26.3576 66.5225 27.1113C65.7089 27.8651 65.2056 28.9062 65.2056 30.0562Z" fill="#0FA46E"/>
<path id="Vector_6" d="M58.4936 35.9769L56.0722 33.734L53.651 31.4914L49.6619 35.1862L45.6729 38.8811V34.9651V31.0492H38.793H31.9129V35.0786V39.1081L27.5627 35.0786L23.2123 31.0492L20.791 33.2918L18.3696 35.5347L25.1413 41.8068L31.9129 48.079V53.7133V59.3476H38.793H45.6729V53.5998V47.852L52.0832 41.9143L58.4936 35.9769Z" fill="#89C527"/>
<path id="Vector_7" d="M21.842 35.5347L23.3953 34.0959L24.9484 32.6573L24.0803 31.8533L23.2123 31.0492L20.791 33.2918L18.3696 35.5347L25.1413 41.8068L31.9129 48.079V53.7133V59.3476H33.649H35.3852V53.7133V48.079L28.6136 41.8068L21.842 35.5347Z" fill="#80B027"/>
<path id="Vector_8" d="M35.3849 42.3072V36.6783V31.0492H33.6488H31.9126V35.0701V39.0911L33.6488 40.6992L35.3849 42.3072Z" fill="#80B027"/>
<path id="Vector_9" d="M69.7019 31.4904C69.7019 33.6468 68.9245 35.6341 67.6158 37.226C66.3071 38.8177 64.4669 40.0138 62.3408 40.5875C61.8857 40.7101 61.4174 40.8044 60.9387 40.868C60.4599 40.9316 59.9706 40.9646 59.4732 40.9646C56.6492 40.9646 54.092 39.9046 52.2409 38.1902C50.3899 36.4758 49.2446 34.1074 49.2446 31.4902C49.2446 28.8744 50.3899 26.5058 52.2409 24.7913C54.0922 23.0766 56.6493 22.016 59.4732 22.016C59.9706 22.016 60.4599 22.049 60.9387 22.1126C61.4174 22.1761 61.8857 22.2705 62.3408 22.393C64.4669 22.9668 66.3071 24.1635 67.6158 25.7557C68.9247 27.3479 69.7019 29.3352 69.7019 31.4904Z" fill="#088E5D"/>
<path id="Vector_10" d="M69.7015 31.4903C69.7015 33.6467 68.9242 35.634 67.6155 37.2259C66.3067 38.8176 64.4665 40.0137 62.3405 40.5874C60.2129 40.0137 58.372 38.8176 57.0629 37.2259C55.7539 35.6342 54.9766 33.6468 54.9766 31.4903C54.9766 29.3351 55.7539 27.3478 57.0629 25.7557C58.372 24.1637 60.2131 22.967 62.3405 22.3931C64.4665 22.9668 66.3067 24.1635 67.6155 25.7557C68.9243 27.3478 69.7015 29.3351 69.7015 31.4903Z" fill="#0FA46E"/>
<path id="Vector_11" d="M18.8809 22.0172C18.8809 23.1672 19.3841 24.2085 20.1978 24.9621C21.0116 25.7157 22.1356 26.1819 23.3772 26.1819C24.6187 26.1819 25.7429 25.7158 26.5565 24.9621C27.3701 24.2083 27.8735 23.1672 27.8735 22.0172C27.8735 20.8672 27.3703 19.826 26.5565 19.0724C25.7427 18.3188 24.6187 17.8525 23.3772 17.8525C22.1356 17.8525 21.0114 18.3186 20.1978 19.0724C19.3842 19.8261 18.8809 20.8672 18.8809 22.0172Z" fill="#0FA46E"/>
<path id="Vector_12" d="M17.5128 36.8009C17.0474 36.8009 16.5987 36.8664 16.1764 36.9879C15.7542 37.1095 15.3588 37.2872 15.0002 37.5114C14.7416 36.6256 14.1766 35.8565 13.4168 35.3087C12.657 34.7611 11.7024 34.4348 10.6643 34.4348C9.42271 34.4348 8.29855 34.9009 7.48495 35.6547C6.67135 36.4084 6.16797 37.4495 6.16797 38.5995C6.16797 39.7495 6.67118 40.7908 7.48495 41.5443C8.29871 42.2979 9.42271 42.7642 10.6643 42.7642C11.1297 42.7642 11.5784 42.6987 12.0007 42.5772C12.4229 42.4556 12.8183 42.2779 13.1769 42.0537C13.4355 42.9395 14.0005 43.7086 14.7603 44.2564C15.5201 44.804 16.4747 45.1303 17.5128 45.1303C18.7544 45.1303 19.8786 44.6642 20.6922 43.9104C21.5058 43.1567 22.0091 42.1156 22.0091 40.9656C22.0091 39.8156 21.5059 38.7743 20.6922 38.0208C19.8786 37.267 18.7544 36.8009 17.5128 36.8009Z" fill="#0FA46E"/>
<path id="Vector_13" d="M43.2778 13.9264C43.2778 15.0764 43.781 16.1177 44.5948 16.8712C45.4086 17.6248 46.5326 18.0911 47.7741 18.0911C49.0157 18.0911 50.1399 17.625 50.9535 16.8712C51.7671 16.1175 52.2704 15.0764 52.2704 13.9264C52.2704 12.7764 51.7672 11.7352 50.9535 10.9816C50.1397 10.228 49.0157 9.76172 47.7741 9.76172C46.5326 9.76172 45.4084 10.2278 44.5948 10.9816C43.7812 11.7353 43.2778 12.7764 43.2778 13.9264Z" fill="#0FA46E"/>
<path id="Vector_14" d="M6.16797 25.8916C6.16797 27.0416 6.67118 28.0829 7.48494 28.8365C8.29871 29.5901 9.42271 30.0563 10.6643 30.0563C11.9058 30.0563 13.03 29.5902 13.8436 28.8365C14.6572 28.0827 15.1606 27.0416 15.1606 25.8916C15.1606 24.7416 14.6574 23.7004 13.8436 22.9468C13.0298 22.1932 11.9058 21.7269 10.6643 21.7269C9.42271 21.7269 8.29854 22.193 7.48494 22.9468C6.67134 23.7005 6.16797 24.7416 6.16797 25.8916Z" fill="#0FA46E"/>
<path id="Vector_15" d="M52.269 21.9243C52.269 24.8754 51.1639 27.5874 49.3156 29.724C47.4674 31.8606 44.8759 33.4217 41.9036 34.0709C41.4048 34.1813 40.8943 34.2656 40.3749 34.3221C39.8553 34.3787 39.3268 34.4076 38.7917 34.4076C35.0706 34.4076 31.7011 33.0101 29.2622 30.751C26.8232 28.492 25.3145 25.371 25.3145 21.9243C25.3145 18.4776 26.8232 15.3567 29.2622 13.0976C31.7011 10.8385 35.0706 9.44104 38.7917 9.44104C39.3268 9.44104 39.8555 9.46995 40.3749 9.52651C40.8945 9.58307 41.4048 9.66729 41.9036 9.77776C44.8759 10.427 47.4672 11.9881 49.3156 14.1246C51.1638 16.2612 52.269 18.9732 52.269 21.9243Z" fill="#088E5D"/>
<path id="Vector_16" d="M52.2693 21.9244C52.2693 24.8755 51.1642 27.5875 49.3158 29.7241C47.4676 31.8606 44.8762 33.4217 41.9038 34.071C38.933 33.4203 36.3416 31.8592 34.493 29.7231C32.6443 27.5869 31.5386 24.8755 31.5386 21.9244C31.5386 18.9733 32.6445 16.2619 34.493 14.1256C36.3417 11.9894 38.933 10.4283 41.9038 9.77783C44.8762 10.4271 47.4675 11.9881 49.3158 14.1247C51.164 16.2613 52.2693 18.9733 52.2693 21.9244Z" fill="#0FA46E"/>
<path id="Vector_17" d="M29.351 32.3334C29.351 34.7256 28.4515 36.9231 26.9486 38.6515C25.4458 40.38 23.3393 41.6393 20.9255 42.1553C20.924 42.1567 20.9233 42.1567 20.9226 42.1562C20.922 42.1559 20.9211 42.1553 20.9198 42.1553C20.5257 42.2401 20.1235 42.3048 19.7146 42.3482C19.3057 42.3917 18.8897 42.4139 18.468 42.4139C15.4636 42.4139 12.7436 41.2857 10.7746 39.4617C8.80568 37.6376 7.58789 35.1175 7.58789 32.3334C7.58789 29.5506 8.80585 27.0312 10.7746 25.2075C12.7436 23.3837 15.4636 22.2557 18.468 22.2557C18.8897 22.2557 19.3056 22.2779 19.7146 22.3214C20.1235 22.3648 20.5257 22.4295 20.9198 22.5143C20.9213 22.5143 20.922 22.5137 20.9226 22.5134C20.9233 22.5131 20.9242 22.5131 20.9255 22.5143C23.3395 23.0303 25.4458 24.2896 26.9486 26.0176C28.4515 27.7457 29.351 29.9426 29.351 32.3334Z" fill="#088E5D"/>
<path id="Vector_18" d="M29.3508 32.3335C29.3508 34.7257 28.4514 36.9232 26.9485 38.6516C25.4456 40.38 23.3392 41.6394 20.9254 42.1553C20.9238 42.1568 20.9232 42.1568 20.9225 42.1563C20.9218 42.156 20.921 42.1553 20.9196 42.1553C18.5072 41.6394 16.4007 40.38 14.8975 38.6516C13.3943 36.9232 12.4941 34.7257 12.4941 32.3335C12.4941 29.9427 13.3943 27.7458 14.8975 26.0177C16.4007 24.2896 18.5072 23.0302 20.9196 22.5144C20.9211 22.5144 20.9218 22.5138 20.9225 22.5135C20.9232 22.5132 20.924 22.5132 20.9254 22.5144C23.3393 23.0304 25.4456 24.2897 26.9485 26.0177C28.4514 27.7458 29.3508 29.9427 29.3508 32.3335Z" fill="#0FA46E"/>
<path id="Vector_19" d="M12.0908 43.0185L17.5829 51.1496L23.0749 59.2807C23.6107 60.0738 23.8368 60.9652 23.7835 61.8336C23.7301 62.7021 23.3971 63.5472 22.8147 64.2479C22.6485 64.4468 22.4626 64.6343 22.2573 64.8071C22.052 64.9799 21.8271 65.1385 21.5835 65.2797C20.4835 65.9172 19.2084 66.0811 18.0363 65.8311C16.8641 65.5811 15.7949 64.9171 15.1068 63.8982L9.6147 55.7671L4.1226 47.636C3.43434 46.6171 3.25738 45.4361 3.52729 44.3504C3.79719 43.2646 4.51413 42.2743 5.61417 41.6369C5.85776 41.4957 6.11013 41.3779 6.36772 41.2824C6.62548 41.1869 6.88881 41.1141 7.1545 41.0627C7.48918 40.999 7.82741 40.9701 8.16378 40.9744C8.50015 40.9788 8.8345 41.0165 9.16108 41.0861C9.74746 41.2107 10.3077 41.439 10.8075 41.7635C11.3072 42.088 11.7465 42.5088 12.0908 43.0185Z" fill="#78A214"/>
<path id="Vector_20" d="M12.091 43.0185L17.5831 51.1495L23.0752 59.2806C23.611 60.0738 23.8371 60.9652 23.7837 61.8336C23.7304 62.702 23.3974 63.5472 22.8149 64.2478C21.8799 64.4266 20.9136 64.3342 20.0472 63.9989C19.1808 63.6636 18.4143 63.0853 17.8785 62.2922L12.3864 54.1611L6.89433 46.03C6.35857 45.2369 6.13252 44.3455 6.18583 43.4771C6.2393 42.6088 6.57213 41.7635 7.15462 41.0628C7.48931 40.9991 7.82753 40.9702 8.1639 40.9746C8.50028 40.9789 8.83462 41.0166 9.16121 41.0863C9.74758 41.2108 10.3078 41.4391 10.8076 41.7636C11.3075 42.088 11.7467 42.5088 12.091 43.0185Z" fill="#80B027"/>
<path id="Vector_21" d="M7.89924 45.3773C8.07872 45.643 8.35774 45.8163 8.66341 45.8816C8.96925 45.9468 9.30174 45.904 9.58885 45.7377C9.8758 45.5715 10.0629 45.313 10.1334 45.0299C10.2039 44.7468 10.1575 44.4387 9.97802 44.1727C9.79854 43.9068 9.51952 43.7337 9.21385 43.6684C8.90801 43.6032 8.57552 43.646 8.28841 43.8123C8.00146 43.9785 7.81438 44.237 7.74387 44.5201C7.67336 44.8032 7.71975 45.1113 7.89924 45.3773Z" fill="#78A214"/>
<path id="Vector_22" d="M11.8719 48.0468C12.0514 48.3126 12.3304 48.4859 12.6361 48.5512C12.9419 48.6164 13.2744 48.5735 13.5615 48.4073C13.8485 48.241 14.0356 47.9826 14.1061 47.6995C14.1766 47.4164 14.1302 47.1082 13.9507 46.8423C13.7712 46.5764 13.4922 46.4032 13.1865 46.3379C12.8807 46.2728 12.5482 46.3156 12.2611 46.4818C11.974 46.6481 11.7871 46.9065 11.7166 47.1896C11.646 47.4728 11.6923 47.7809 11.8719 48.0468Z" fill="#78A214"/>
<path id="Vector_23" d="M11.2005 52.0477C11.38 52.3135 11.659 52.4867 11.9647 52.5521C12.2705 52.6172 12.603 52.5744 12.8902 52.4081C13.1771 52.2419 13.3642 51.9835 13.4347 51.7003C13.505 51.4171 13.4588 51.1091 13.2793 50.8431C13.0998 50.5772 12.8208 50.4041 12.5151 50.3388C12.2093 50.2736 11.8768 50.3164 11.5897 50.4827C11.3028 50.6489 11.1157 50.9074 11.0452 51.1905C10.9747 51.4738 11.0209 51.7817 11.2005 52.0477Z" fill="#78A214"/>
<path id="Vector_24" d="M15.2733 54.1529C15.4528 54.4187 15.7318 54.592 16.0375 54.6573C16.3433 54.7224 16.6758 54.6796 16.9629 54.5134C17.2499 54.3471 17.4369 54.0887 17.5074 53.8056C17.578 53.5224 17.5316 53.2143 17.3521 52.9484C17.1726 52.6824 16.8936 52.5093 16.5879 52.444C16.2821 52.3788 15.9496 52.4217 15.6625 52.5879C15.3755 52.7542 15.1884 53.0126 15.1179 53.2957C15.0474 53.5788 15.0936 53.887 15.2733 54.1529Z" fill="#78A214"/>
<path id="Vector_25" d="M15.4627 58.3586C15.6422 58.6244 15.9212 58.7977 16.2269 58.863C16.5327 58.9281 16.8652 58.8853 17.1523 58.7191C17.4394 58.5528 17.6264 58.2944 17.6969 58.0112C17.7672 57.728 17.721 57.42 17.5415 57.1541C17.362 56.8881 17.083 56.715 16.7773 56.6497C16.4715 56.5845 16.139 56.6273 15.8519 56.7936C15.5648 56.9598 15.3779 57.2183 15.3073 57.5014C15.2368 57.7845 15.2832 58.0928 15.4627 58.3586Z" fill="#118C58"/>
<path id="Vector_26" d="M20.2245 60.4119C20.4039 60.6777 20.683 60.851 20.9886 60.9163C21.2945 60.9815 21.627 60.9387 21.9141 60.7724C22.201 60.6062 22.3881 60.3477 22.4586 60.0646C22.529 59.7813 22.4827 59.4733 22.3032 59.2074C22.1238 58.9416 21.8447 58.7683 21.5391 58.703C21.2332 58.6379 20.9007 58.6807 20.6136 58.8469C20.3267 59.0132 20.1396 59.2716 20.0691 59.5547C19.9986 59.8379 20.0448 60.146 20.2245 60.4119Z" fill="#118C58"/>
<path id="Vector_27" d="M76.7142 25.6454C77.0423 28.1395 77.0519 30.4298 76.8024 32.1167C76.5529 33.8036 76.0442 34.8869 75.3352 34.9669C74.6262 35.0469 73.8515 34.1084 73.172 32.5264C72.4925 30.9444 71.908 28.7189 71.5801 26.225C71.4075 24.9136 71.421 23.6475 71.5347 22.4934C71.6484 21.3394 71.8621 20.2975 72.0902 19.4345C72.2297 18.9067 72.6857 18.5992 73.1749 18.544C73.6641 18.4889 74.1865 18.6859 74.4586 19.1672C74.9036 19.9542 75.3814 20.9181 75.7908 22.0131C76.2002 23.1081 76.5416 24.334 76.7142 25.6454Z" fill="#80B027"/>
<path id="Vector_28" d="M78.8355 25.9042C77.8217 28.2345 77.1722 30.4445 76.942 32.1337C76.7117 33.8229 76.9003 34.9912 77.5628 35.2386C78.2252 35.4859 79.2357 34.7651 80.3342 33.4C81.4327 32.0348 82.619 30.0253 83.6328 27.695C84.1659 26.4697 84.5066 25.2434 84.7193 24.1015C84.9321 22.9597 85.0167 21.9018 85.0377 21.0137C85.0505 20.4704 84.6959 20.0642 84.2387 19.8936C83.7816 19.7229 83.222 19.7881 82.8246 20.1878C82.1748 20.8412 81.444 21.6578 80.7424 22.6173C80.041 23.5764 79.3686 24.6789 78.8355 25.9042Z" fill="#80B027"/>
<path id="Vector_29" d="M80.9947 24.919C80.4656 27.9278 79.6401 30.5993 78.733 32.4865C77.826 34.3737 76.8373 35.4764 75.9822 35.3475C75.1269 35.2184 74.5672 33.8822 74.3534 31.8259C74.1397 29.7697 74.272 26.9936 74.801 23.9848C75.1097 22.2293 75.6647 20.6106 76.2963 19.1982C76.9278 17.7859 77.6358 16.5798 78.25 15.6498C78.5469 15.2001 79.0653 15.0312 79.5414 15.1029C80.0174 15.1748 80.4511 15.4873 80.5787 16.0011C80.8427 17.0636 81.1009 18.4154 81.216 19.9404C81.331 21.4654 81.3032 23.1636 80.9947 24.919Z" fill="#118C58"/>
<path id="Vector_30" d="M81.5298 35.7283L78.3774 49.3503L75.2251 62.9723C75.0898 63.6311 74.8531 64.2255 74.5137 64.7073C74.1743 65.1892 73.7323 65.5589 73.1866 65.7678C72.9614 65.8547 72.7185 65.9141 72.4579 65.943C72.1972 65.9717 71.9186 65.9698 71.622 65.9336C70.6075 65.8098 69.9064 65.3512 69.4778 64.6872C69.0491 64.0233 68.8927 63.1541 68.9678 62.2092L69.7294 48.2956L70.4911 34.382C70.5528 33.6106 70.9579 32.9427 71.5545 32.4928C72.151 32.043 72.939 31.8112 73.7664 31.9122L76.4115 32.2347L79.0566 32.5572C79.884 32.6581 80.5807 33.0708 81.0314 33.6483C81.4817 34.2261 81.6865 34.9683 81.5298 35.7283Z" fill="#FC7701"/>
<path id="Vector_31" d="M81.5297 35.7283L80.903 38.4361L80.2763 41.1439L80.0336 42.1917L79.7908 43.2395L78.6505 48.1677L77.5101 53.0958L77.268 54.1438L77.026 55.1917L76.1255 59.082L75.225 62.9723C75.0897 63.6311 74.853 64.2255 74.5136 64.7073C74.1742 65.1892 73.7323 65.5589 73.1865 65.7678C72.7177 65.4352 72.3937 64.9722 72.2002 64.4252C72.0067 63.8781 71.9438 63.2472 71.9973 62.5786L72.7589 48.665L73.5205 34.7514C73.5823 33.98 73.9873 33.312 74.584 32.8622C75.1805 32.4123 75.9684 32.1806 76.7959 32.2816L77.9261 32.4194L79.0563 32.5572C79.8838 32.6581 80.5805 33.0708 81.0312 33.6483C81.4816 34.2261 81.6864 34.9683 81.5297 35.7283Z" fill="#FC840A"/>
<path id="Vector_32" d="M78.2554 38.1133L75.6442 37.7948L73.0331 37.4764C72.7173 37.4379 72.4484 37.2845 72.2687 37.0676C72.0891 36.8508 71.9986 36.5704 72.0403 36.2779C72.0818 35.9854 72.2475 35.7364 72.4816 35.57C72.7157 35.4036 73.0184 35.3198 73.3342 35.3584L75.9453 35.6769L78.5565 35.9953C78.8723 36.0337 79.1412 36.1872 79.3209 36.404C79.5005 36.6209 79.5909 36.9012 79.5493 37.1937C79.5078 37.4862 79.3421 37.7353 79.108 37.9017C78.8738 38.0681 78.571 38.1517 78.2554 38.1133Z" fill="#FC7701"/>
<path id="Vector_33" d="M80.2768 41.1441L80.034 42.1919L79.7913 43.2397L77.9446 43.0146L76.098 42.7894C75.782 42.7508 75.5129 42.5972 75.3334 42.3804C75.1538 42.1633 75.0637 41.883 75.1052 41.591C75.126 41.4446 75.1777 41.3093 75.2533 41.1897C75.3289 41.0702 75.4288 40.9665 75.5455 40.8833C75.6631 40.7997 75.7975 40.7371 75.9419 40.7002C76.0863 40.6633 76.241 40.6521 76.3989 40.6715L78.3378 40.9079L80.2768 41.1441Z" fill="#FC7701"/>
<path id="Vector_34" d="M76.2549 48.306L73.6437 47.9876L71.0326 47.6691C70.7168 47.6307 70.4479 47.4773 70.2682 47.2604C70.0886 47.0435 69.9982 46.7632 70.0398 46.4707C70.0813 46.1782 70.247 45.9291 70.4811 45.7627C70.7153 45.5963 71.0179 45.5126 71.3337 45.5512L73.9449 45.8696L76.556 46.188C76.8718 46.2265 77.1407 46.3799 77.3204 46.5968C77.5 46.8137 77.5905 47.094 77.5488 47.3865C77.5073 47.679 77.3416 47.928 77.1075 48.0944C76.8733 48.2609 76.5707 48.3444 76.2549 48.306Z" fill="#FC7701"/>
<path id="Vector_35" d="M77.5106 53.0958L77.2685 54.1438L77.0264 55.1918L75.7035 55.0305L74.3807 54.8693C74.0647 54.8307 73.7956 54.6771 73.6162 54.4602C73.4365 54.2432 73.3464 53.9629 73.3879 53.6708C73.4087 53.5244 73.4605 53.3891 73.536 53.2696C73.6116 53.15 73.7115 53.0463 73.8282 52.9632C73.9458 52.8796 74.0802 52.8169 74.2246 52.7801C74.369 52.7432 74.5237 52.7319 74.6816 52.7513L76.0959 52.9238L77.5106 53.0958Z" fill="#FC7701"/>
<path id="Vector_36" d="M64.6 16.4758C65.4167 19.4119 65.8178 22.1506 65.8062 24.2053C65.7945 26.2598 65.3699 27.6303 64.5354 27.8294C63.7009 28.0286 62.6143 27.0188 61.5322 25.2252C60.45 23.4316 59.3724 20.8542 58.5558 17.9181C58.1263 16.3744 57.9272 14.8575 57.8669 13.4602C57.8066 12.0628 57.8851 10.785 58.0113 9.71922C58.0884 9.06735 58.5816 8.63297 59.1575 8.49563C59.7334 8.35813 60.392 8.51781 60.7996 9.05391C61.4659 9.93063 62.2014 11.0141 62.8775 12.2645C63.5536 13.5148 64.1705 14.9319 64.6 16.4758Z" fill="#80B027"/>
<path id="Vector_37" d="M67.183 16.4758C66.3663 19.4119 65.9652 22.1506 65.9768 24.2053C65.9884 26.2598 66.413 27.6303 67.2476 27.8294C68.0821 28.0286 69.1686 27.0188 70.2508 25.2252C71.3329 23.4316 72.4105 20.8542 73.2272 17.9181C73.6567 16.3744 73.8557 14.8575 73.9161 13.4602C73.9763 12.0628 73.8979 10.785 73.7717 9.71922C73.6946 9.06735 73.2014 8.63297 72.6255 8.49563C72.0495 8.35813 71.391 8.51781 70.9834 9.05391C70.3171 9.93063 69.5816 11.0141 68.9055 12.2645C68.2294 13.5148 67.6124 14.9319 67.183 16.4758Z" fill="#80B027"/>
<path id="Vector_38" d="M69.5979 14.982C69.4766 18.6589 68.9434 21.9758 68.179 24.3661C67.4147 26.7564 66.4194 28.22 65.3743 28.1903C64.3293 28.1606 63.4322 26.6436 62.8268 24.2147C62.2213 21.7858 61.9074 18.4448 62.0287 14.7679C62.0994 12.6226 62.4884 10.605 63.0037 8.82294C63.5191 7.04091 64.1611 5.49466 64.7379 4.29232C65.0167 3.71107 65.6082 3.43325 66.19 3.44966C66.7718 3.46607 67.3438 3.77685 67.5839 4.37279C68.0803 5.6056 68.6193 7.18513 69.0164 8.99294C69.4133 10.8008 69.6686 12.8367 69.5979 14.982Z" fill="#118C58"/>
<path id="Vector_39" d="M72.0769 27.8364L70.6219 44.5942L69.1669 61.352C69.1172 62.1598 68.935 62.9054 68.6109 63.5317C68.2869 64.1579 67.8208 64.6645 67.2034 64.9942C66.9486 65.1309 66.6683 65.2375 66.3613 65.31C66.0542 65.3825 65.7207 65.4208 65.3596 65.4208C64.1247 65.4208 63.2079 64.9743 62.5821 64.2425C61.9562 63.5106 61.6214 62.4934 61.5505 61.352L60.0955 44.5942L58.6406 27.8364C58.5832 26.9043 58.9543 26.0461 59.5917 25.4209C60.2288 24.7958 61.1322 24.4036 62.1392 24.4036H65.3587H68.5782C69.5853 24.4036 70.4891 24.7958 71.1265 25.4209C71.764 26.0462 72.1351 26.9043 72.0769 27.8364Z" fill="#FC7701"/>
<path id="Vector_40" d="M72.0773 27.8364L71.7879 31.1676L71.4986 34.4989L71.3865 35.7879L71.2743 37.077L70.748 43.1395L70.2216 49.202L70.1103 50.4911L69.999 51.7801L69.5831 56.5661L69.1673 61.352C69.1176 62.1598 68.9354 62.9054 68.6113 63.5317C68.2873 64.1579 67.8212 64.6645 67.2038 64.9942C66.5863 64.6645 66.1199 64.1578 65.7953 63.5317C65.4708 62.9054 65.2883 62.1598 65.2385 61.352L63.7835 44.5942L62.3286 27.8364C62.2712 26.9043 62.6423 26.0461 63.2795 25.4209C63.9166 24.7958 64.8201 24.4036 65.8272 24.4036H67.2029H68.5786C69.5857 24.4036 70.4895 24.7958 71.1268 25.4209C71.7643 26.0462 72.1355 26.9043 72.0773 27.8364Z" fill="#FC840A"/>
<path id="Vector_41" d="M68.5648 31.1677H65.3864H62.2081C61.8238 31.1677 61.4758 31.0235 61.224 30.7902C60.9721 30.5569 60.8164 30.2348 60.8164 29.8787C60.8164 29.5227 60.9721 29.2004 61.224 28.9671C61.4758 28.7338 61.8237 28.5896 62.2081 28.5896H65.3864H68.5648C68.949 28.5896 69.297 28.7338 69.5489 28.9671C69.8008 29.2004 69.9565 29.5226 69.9565 29.8787C69.9565 30.2346 69.8008 30.5569 69.5489 30.7902C69.297 31.0235 68.949 31.1677 68.5648 31.1677Z" fill="#FC7701"/>
<path id="Vector_42" d="M71.4984 34.4989L71.3862 35.788L71.2741 37.077H69.0262H66.7784C66.3938 37.077 66.046 36.9325 65.7941 36.6991C65.5424 36.4656 65.3867 36.1434 65.3867 35.788C65.3867 35.6098 65.4255 35.4403 65.4957 35.2862C65.5659 35.1322 65.6676 34.9934 65.7933 34.877C65.9198 34.7598 66.0699 34.6653 66.2366 34.6002C66.4033 34.535 66.5861 34.4991 66.7784 34.4991H69.1384L71.4984 34.4989Z" fill="#FC7701"/>
<path id="Vector_43" d="M67.9051 43.6548H64.7268H61.5484C61.1642 43.6548 60.8162 43.5106 60.5643 43.2773C60.3124 43.044 60.1567 42.7218 60.1567 42.3657C60.1567 42.0098 60.3124 41.6874 60.5643 41.4542C60.8162 41.2209 61.164 41.0767 61.5484 41.0767H64.7268H67.9051C68.2894 41.0767 68.6374 41.2209 68.8892 41.4542C69.1411 41.6874 69.2968 42.0096 69.2968 42.3657C69.2968 42.7217 69.1411 43.044 68.8892 43.2773C68.6374 43.5106 68.2895 43.6548 67.9051 43.6548Z" fill="#FC7701"/>
<path id="Vector_44" d="M70.2214 49.202L70.1101 50.4911L69.9987 51.7802H68.3886H66.7784C66.3938 51.7802 66.046 51.6356 65.7941 51.4022C65.5424 51.1687 65.3867 50.8466 65.3867 50.4911C65.3867 50.313 65.4255 50.1434 65.4957 49.9894C65.5659 49.8353 65.6676 49.6966 65.7933 49.5801C65.9198 49.463 66.0699 49.3684 66.2366 49.3033C66.4031 49.2381 66.5861 49.2022 66.7784 49.2022H68.4999L70.2214 49.202Z" fill="#FC7701"/>
<path id="Vector_45" d="M15.2014 56.5736L28.0245 56.5866L40.8477 56.5996C42.0985 56.6008 43.2569 56.9677 44.2053 57.5908C45.1537 58.2139 45.8919 59.0936 46.3023 60.1206C46.4184 60.413 46.5083 60.7169 46.569 61.0303C46.6297 61.3438 46.6614 61.6664 46.6611 61.9961C46.6594 63.4844 46.0062 64.8314 44.9518 65.806C43.8973 66.7805 42.4416 67.3825 40.8348 67.381L28.0117 67.368L15.1886 67.355C13.5818 67.3535 12.1275 66.7485 11.0754 65.7717C10.0233 64.795 9.37332 63.4467 9.375 61.9585C9.37534 61.6288 9.4079 61.3061 9.4693 60.993C9.53071 60.6799 9.62146 60.376 9.7382 60.0839C9.88631 59.7169 10.0759 59.3691 10.3023 59.045C10.5285 58.721 10.7912 58.421 11.085 58.1494C11.6119 57.6616 12.2391 57.2674 12.9354 56.9952C13.6318 56.723 14.3976 56.5727 15.2014 56.5736Z" fill="#118C58"/>
<path id="Vector_46" d="M15.2022 56.5736L28.0253 56.5866L40.8484 56.5996C42.0992 56.6008 43.2576 56.9677 44.206 57.5908C45.1544 58.2139 45.8926 59.0936 46.303 60.1206C45.8902 61.1467 45.1498 62.025 44.2001 62.6463C43.2502 63.2675 42.091 63.6321 40.8401 63.6308L28.017 63.6178L15.1939 63.6049C13.9431 63.6036 12.7847 63.2367 11.8363 62.6136C10.8879 61.9903 10.1497 61.1108 9.73926 60.0838C9.88737 59.7167 10.077 59.3689 10.3034 59.0449C10.5296 58.7208 10.7922 58.4208 11.0861 58.1492C11.6129 57.6614 12.2401 57.2672 12.9365 56.995C13.6328 56.7228 14.3984 56.5727 15.2022 56.5736Z" fill="#0FA46E"/>
<g id="Group">
<path id="Vector_47" d="M15.1157 62.1985C15.5349 62.199 15.9146 62.0419 16.1897 61.7877C16.4647 61.5335 16.6351 61.1821 16.6356 60.7938C16.6361 60.4055 16.4665 60.0538 16.1921 59.799C15.9176 59.5441 15.5382 59.3865 15.119 59.386C14.6998 59.3855 14.3201 59.5425 14.045 59.7968C13.77 60.051 13.5996 60.4024 13.5991 60.7907C13.5986 61.179 13.7682 61.5307 14.0426 61.7855C14.3171 62.0404 14.6965 62.198 15.1157 62.1985Z" fill="#118C58"/>
<path id="Vector_48" d="M20.7529 60.0948C21.1721 60.0953 21.5518 59.9383 21.8269 59.6841C22.1019 59.4298 22.2723 59.0784 22.2728 58.6902C22.2733 58.3019 22.1038 57.9502 21.8293 57.6953C21.5548 57.4406 21.1754 57.2828 20.7562 57.2823C20.337 57.2819 19.9573 57.4389 19.6822 57.6931C19.4072 57.9473 19.2368 58.2988 19.2363 58.687C19.2358 59.0753 19.4054 59.427 19.6798 59.6819C19.9543 59.9366 20.3337 60.0944 20.7529 60.0948Z" fill="#118C58"/>
<path id="Vector_49" d="M24.8422 63.3801C25.2614 63.3806 25.6411 63.2236 25.9163 62.9693C26.1913 62.7151 26.3616 62.3637 26.3621 61.9754C26.3626 61.5872 26.1931 61.2354 25.9186 60.9806C25.6442 60.7259 25.2648 60.5681 24.8456 60.5676C24.4264 60.5672 24.0467 60.7242 23.7715 60.9784C23.4964 61.2326 23.3262 61.584 23.3257 61.9723C23.3252 62.3606 23.4947 62.7123 23.7692 62.9672C24.0436 63.2218 24.423 63.3797 24.8422 63.3801Z" fill="#118C58"/>
<path id="Vector_50" d="M29.9067 60.8071C30.3259 60.8076 30.7056 60.6506 30.9807 60.3963C31.2559 60.1421 31.4261 59.7907 31.4266 59.4024C31.4271 59.0142 31.2576 58.6624 30.9831 58.4076C30.7086 58.1528 30.3292 57.9951 29.91 57.9946C29.4909 57.9942 29.1111 58.1512 28.836 58.4054C28.561 58.6596 28.3906 59.011 28.3901 59.3993C28.3896 59.7876 28.5592 60.1393 28.8336 60.3942C29.1081 60.6488 29.4875 60.8067 29.9067 60.8071Z" fill="#118C58"/>
<path id="Vector_51" d="M34.7949 63.3901C35.2141 63.3906 35.5938 63.2336 35.8689 62.9794C36.1439 62.7251 36.3143 62.3737 36.3148 61.9855C36.3153 61.5972 36.1457 61.2455 35.8713 60.9906C35.5968 60.7359 35.2174 60.5781 34.7982 60.5776C34.379 60.5772 33.9993 60.7342 33.7242 60.9884C33.4492 61.2426 33.2788 61.594 33.2783 61.9823C33.2778 62.3706 33.4474 62.7223 33.7218 62.9772C33.9963 63.232 34.3757 63.3898 34.7949 63.3901Z" fill="#118C58"/>
<path id="Vector_52" d="M40.2534 60.1145C40.6726 60.115 41.0523 59.9579 41.3274 59.7037C41.6024 59.4495 41.7728 59.0981 41.7733 58.7098C41.7738 58.3215 41.6042 57.9698 41.3298 57.715C41.0553 57.4603 40.6759 57.3025 40.2567 57.302C39.8375 57.3015 39.4578 57.4586 39.1827 57.7128C38.9077 57.967 38.7373 58.3184 38.7368 58.7067C38.7363 59.095 38.9058 59.4467 39.1803 59.7015C39.4548 59.9562 39.8342 60.114 40.2534 60.1145Z" fill="#118C58"/>
</g>
<path id="Vector_53" d="M65.6178 57.4092C65.6178 59.9828 64.4479 62.3426 62.5012 64.1822C60.5545 66.0217 57.831 67.3409 54.7235 67.8329C54.2848 67.9025 53.8384 67.9556 53.3851 67.9911C52.932 68.0267 52.4722 68.0448 52.0069 68.0448C48.2481 68.0448 44.8451 66.8543 42.3819 64.9298C39.9186 63.0053 38.395 60.3462 38.395 57.4092C38.395 54.4722 39.9186 51.8132 42.3819 49.8886C44.8451 47.9639 48.2481 46.7736 52.0069 46.7736C52.4722 46.7736 52.932 46.7918 53.3851 46.8273C53.8382 46.8629 54.2848 46.9159 54.7235 46.9856C57.8308 47.4776 60.5544 48.7967 62.5012 50.6364C64.4479 52.4757 65.6178 54.8356 65.6178 57.4092Z" fill="#B82033"/>
<path id="Vector_54" d="M65.6184 57.4092C65.6184 59.9828 64.4485 62.3427 62.5018 64.1822C60.5551 66.0217 57.8315 67.3409 54.7241 67.833C51.6161 67.3409 48.8922 66.0219 46.9454 64.1822C44.9985 62.3427 43.8286 59.9827 43.8286 57.4092C43.8286 54.8358 44.9985 52.4758 46.9454 50.6363C48.8922 48.7967 51.6161 47.4775 54.7241 46.9855C57.8314 47.4775 60.5549 48.7966 62.5018 50.6363C64.4485 52.4758 65.6184 54.8356 65.6184 57.4092Z" fill="#EB2433"/>
<path id="Vector_55" d="M50.9073 48.0766C50.9073 48.0766 50.8081 47.2691 51.1425 46.0511C51.4768 44.8332 52.2447 43.2047 53.9787 41.5629" stroke="#057A4C" stroke-width="1.32877" stroke-miterlimit="10" stroke-linecap="round"/>
<path id="Vector_56" d="M76.9942 61.3122C76.9942 63.2526 76.1121 65.0322 74.6442 66.4192C73.1762 67.8062 71.1225 68.8009 68.7796 69.172C68.4488 69.2245 68.1121 69.2645 67.7705 69.2912C67.4287 69.3181 67.082 69.3319 66.7312 69.3319C63.897 69.3319 61.331 68.4342 59.4735 66.9829C57.6161 65.5317 56.4673 63.5267 56.4673 61.3122C56.4673 59.0975 57.6161 57.0926 59.4735 55.6414C61.331 54.1901 63.897 53.2925 66.7312 53.2925C67.082 53.2925 67.4287 53.3062 67.7705 53.3331C68.1122 53.36 68.4488 53.4 68.7796 53.4523C71.1227 53.8233 73.1764 54.8179 74.6442 56.2051C76.1119 57.5923 76.9942 59.3715 76.9942 61.3122Z" fill="#B82033"/>
<path id="Vector_57" d="M76.9935 61.3122C76.9935 63.2527 76.1115 65.0322 74.6435 66.4193C73.1755 67.8063 71.1219 68.801 68.7789 69.1721C66.4355 68.8011 64.3816 67.8065 62.9135 66.4193C61.4456 65.0322 60.5635 63.2527 60.5635 61.3122C60.5635 59.3718 61.4456 57.5922 62.9135 56.2052C64.3815 54.8182 66.4355 53.8235 68.7789 53.4524C71.1221 53.8233 73.1757 54.818 74.6435 56.2052C76.1113 57.5924 76.9935 59.3716 76.9935 61.3122Z" fill="#EB2433"/>
<path id="Vector_58" d="M72.7356 54.275C71.3628 53.2456 69.7283 52.9327 68.4372 52.8772C67.146 52.8217 66.1981 53.0236 66.1981 53.0236C66.1981 53.0236 65.2502 52.8217 63.9591 52.8772C62.6679 52.9327 61.0336 53.2456 59.6606 54.275C59.6606 54.275 59.7902 54.4406 60.1225 54.6524C60.4548 54.8641 60.9901 55.1217 61.8013 55.3059C62.1364 55.382 62.3651 55.6114 62.4505 55.8795C62.5358 56.1477 62.4778 56.4545 62.2393 56.6855C61.8499 57.0624 61.4606 57.5161 61.1807 58.0219C60.9009 58.5277 60.7305 59.0856 60.7791 59.6709C60.7791 59.6709 61.5672 59.5633 62.4533 59.2892C63.3395 59.015 64.3238 58.5744 64.716 57.9083C64.716 57.9083 64.7595 58.2414 64.9667 58.7409C65.1737 59.2405 65.5441 59.9066 66.198 60.5727C66.8516 59.9066 67.2223 59.2405 67.4292 58.7409C67.6362 58.2414 67.6799 57.9083 67.6799 57.9083C68.0721 58.5744 69.0564 59.015 69.9426 59.2892C70.8287 59.5633 71.6168 59.6709 71.6168 59.6709C71.6654 59.0855 71.495 58.5277 71.2152 58.0219C70.9353 57.5161 70.546 57.0624 70.1566 56.6855C69.9181 56.4545 69.8601 56.1477 69.9454 55.8795C70.0308 55.6114 70.2595 55.382 70.5946 55.3059C71.4058 55.1219 71.9411 54.8641 72.2734 54.6524C72.6057 54.4406 72.7356 54.275 72.7356 54.275Z" fill="#0FA46E"/>
<path id="Vector_59" d="M70.8725 53.7608C69.8909 53.0247 68.7223 52.8011 67.7991 52.7614C66.8758 52.7217 66.1982 52.8661 66.1982 52.8661C66.1982 52.8661 65.5204 52.7217 64.5973 52.7614C63.6741 52.8011 62.5055 53.0249 61.5239 53.7608C61.5239 53.7608 61.6165 53.8792 61.8542 54.0306C62.0919 54.182 62.4745 54.3663 63.0546 54.498C63.2942 54.5524 63.4578 54.7164 63.5189 54.9081C63.5799 55.0999 63.5384 55.3192 63.3679 55.4844C63.0896 55.7539 62.8112 56.0783 62.6111 56.4399C62.4111 56.8014 62.2893 57.2005 62.324 57.6191C62.324 57.6191 62.8875 57.5422 63.5212 57.3461C64.1548 57.1502 64.8586 56.835 65.139 56.3588C65.139 56.3588 65.1702 56.5969 65.3181 56.9541C65.4661 57.3113 65.7311 57.7875 66.1985 58.2638C66.666 57.7875 66.9308 57.3113 67.0789 56.9541C67.2269 56.5969 67.2581 56.3588 67.2581 56.3588C67.5386 56.835 68.2422 57.1502 68.8758 57.3461C69.5095 57.542 70.0731 57.6191 70.0731 57.6191C70.1078 57.2005 69.986 56.8016 69.7859 56.4399C69.5859 56.0781 69.3075 55.7538 69.0292 55.4844C68.8586 55.3192 68.8171 55.0999 68.8782 54.9081C68.9393 54.7164 69.1027 54.5524 69.3424 54.498C69.9226 54.3663 70.3052 54.182 70.5429 54.0306C70.7799 53.8792 70.8725 53.7608 70.8725 53.7608Z" fill="#088E5D"/>
<path id="Vector_60" d="M65.9015 54.275C65.9015 54.275 65.8267 53.6661 66.0788 52.7476C66.331 51.8292 66.9099 50.6014 68.2174 49.3634" stroke="#057A4C" stroke-width="1.32877" stroke-miterlimit="10" stroke-linecap="round"/>
</g>
</svg>
